<?xml version="1.0" standalone="no"?>
<!DOCTYPE svg PUBLIC "-//W3C//DTD SVG 20010904//EN"
 "http://www.w3.org/TR/2001/REC-SVG-20010904/DTD/svg10.dtd">
<svg version="1.0" xmlns="http://www.w3.org/2000/svg"
 width="251.000000pt" height="256.000000pt" viewBox="0 0 251.000000 256.000000"
 preserveAspectRatio="xMidYMid meet">

<g transform="translate(0.000000,256.000000) scale(0.100000,-0.100000)"
fill="#000000" stroke="none">
<path d="M1472 2283 c-59 -54 -151 -137 -204 -187 l-98 -89 -49 46 c-27 26
-61 58 -75 72 -29 29 -56 33 -56 7 0 -20 158 -182 178 -182 7 0 85 66 175 146
228 207 277 254 277 270 0 35 -47 8 -148 -83z"/>
<path d="M808 2013 l-127 -228 581 -3 c320 -1 583 0 585 2 4 4 -29 66 -192
354 -52 92 -60 102 -86 102 -22 0 -65 -33 -205 -160 -102 -92 -186 -160 -197
-160 -11 0 -60 39 -113 92 -74 72 -94 98 -94 119 0 29 23 49 54 49 9 0 47 -30
86 -66 l70 -66 53 46 c28 25 77 68 107 95 l55 50 -225 1 -225 0 -127 -227z"/>
<path d="M722 1656 c-23 -40 -42 -76 -42 -80 0 -3 263 -6 585 -6 462 0 585 3
584 13 0 6 -17 41 -38 77 l-37 65 -505 3 -505 2 -42 -74z"/>
<path d="M762 1518 c-12 -15 -82 -138 -82 -144 0 -2 263 -4 585 -4 322 0 585
3 585 7 0 12 -72 138 -84 145 -6 4 -232 8 -502 8 -381 0 -494 -3 -502 -12z"/>
<path d="M721 1246 c-23 -40 -41 -76 -41 -80 0 -3 263 -6 585 -6 462 0 585 3
584 13 0 6 -17 41 -38 77 l-37 65 -506 3 -506 2 -41 -74z"/>
<path d="M1797 883 c-4 -3 -7 -17 -7 -29 0 -30 -17 -40 -25 -14 -12 39 -46 19
-79 -47 -9 -18 -16 -34 -16 -38 0 -10 28 -5 38 8 17 20 82 9 82 -13 0 -15 -11
-20 -56 -26 -59 -7 -76 -23 -53 -50 8 -10 21 -13 36 -9 33 8 29 -4 -27 -70
-27 -32 -48 -61 -45 -63 6 -6 64 35 108 77 l37 35 0 -48 c0 -54 -14 -86 -37
-86 -14 0 -14 -2 2 -20 18 -19 18 -19 46 1 22 16 30 31 35 69 4 28 8 50 10 50
2 0 21 -17 43 -39 28 -28 49 -40 77 -43 22 -3 41 -4 42 -2 9 6 -18 35 -81 89
-37 31 -66 62 -64 68 2 7 22 15 45 20 33 6 42 13 42 29 0 19 -4 20 -55 15 -52
-5 -55 -4 -55 17 0 15 9 27 25 34 33 15 33 42 0 42 -18 0 -28 7 -35 25 -9 25
-21 31 -33 18z"/>
<path d="M657 873 c-4 -3 -7 -74 -7 -158 0 -152 -5 -177 -38 -187 -11 -3 -9
-10 7 -28 l20 -25 33 33 33 32 -1 154 c0 112 -4 159 -13 170 -15 17 -24 20
-34 9z"/>
<path d="M770 736 c0 -12 53 -116 59 -116 15 0 31 25 31 47 0 29 -42 73 -70
73 -11 0 -20 -2 -20 -4z"/>
<path d="M507 693 c-9 -8 -9 -46 -1 -67 8 -20 34 -21 34 -2 0 7 3 28 6 45 6
26 4 31 -13 31 -11 0 -23 -3 -26 -7z"/>
<path d="M565 391 c-10 -17 -12 -141 -2 -141 11 0 18 21 21 72 3 54 -6 88 -19
69z"/>
<path d="M641 393 c-1 -7 -10 -13 -21 -13 -11 0 -20 -4 -20 -10 0 -5 9 -10 20
-10 11 0 20 -4 20 -10 0 -5 -9 -10 -20 -10 -20 0 -20 -1 -5 -30 14 -27 14 -31
0 -36 -8 -3 -15 -10 -15 -15 0 -6 10 -5 21 2 16 8 28 8 45 0 13 -6 24 -7 24
-2 0 5 -7 12 -16 15 -14 5 -14 8 0 28 21 30 20 38 -4 38 -11 0 -20 5 -20 10 0
6 9 10 20 10 11 0 20 5 20 10 0 6 -9 10 -19 10 -11 0 -22 6 -24 13 -4 10 -6
10 -6 0z m29 -72 c0 -13 -26 -32 -33 -24 -14 13 -6 33 13 33 11 0 20 -4 20 -9z"/>
<path d="M928 382 c-5 -17 -14 -22 -40 -23 l-33 -2 34 -6 35 -6 -33 -33 c-19
-18 -30 -36 -26 -40 4 -4 17 5 30 21 13 15 27 27 30 27 3 0 6 -17 6 -37 l2
-38 6 38 6 39 24 -26 c13 -14 28 -23 33 -20 5 3 -6 20 -24 37 l-33 32 32 3
c30 3 31 4 15 23 -9 10 -20 19 -25 19 -5 0 -4 -7 3 -15 10 -12 9 -15 -4 -15
-9 0 -20 10 -25 22 l-8 22 -5 -22z"/>
<path d="M1180 324 l0 -65 38 3 c34 3 37 6 40 36 4 40 -14 65 -39 57 -14 -5
-19 -1 -19 14 0 12 -4 21 -10 21 -6 0 -10 -29 -10 -66z m55 -20 c0 -19 -5 -29
-15 -29 -16 0 -25 28 -16 51 10 25 31 10 31 -22z"/>
<path d="M1430 325 c0 -37 4 -65 10 -65 6 0 10 28 10 65 0 37 -4 65 -10 65 -6
0 -10 -28 -10 -65z"/>
<path d="M1639 341 c-20 -16 -22 -23 -14 -47 8 -23 17 -30 43 -32 26 -3 34 1
41 20 10 27 4 48 -17 66 -21 16 -26 15 -53 -7z m49 -30 c2 -13 -1 -28 -7 -34
-17 -17 -45 15 -36 42 9 29 39 23 43 -8z"/>
<path d="M1896 345 c-32 -32 -17 -76 29 -88 15 -3 13 -5 -8 -6 -33 -1 -27 -21
7 -21 34 0 46 19 46 72 0 35 -4 48 -14 48 -8 0 -21 3 -29 6 -8 3 -22 -2 -31
-11z m44 -20 c15 -18 6 -45 -15 -45 -18 0 -30 24 -21 45 7 19 20 19 36 0z"/>
</g>
</svg>
