<?xml version="1.0" standalone="no"?>
<!DOCTYPE svg PUBLIC "-//W3C//DTD SVG 20010904//EN"
 "http://www.w3.org/TR/2001/REC-SVG-20010904/DTD/svg10.dtd">
<svg version="1.0" xmlns="http://www.w3.org/2000/svg"
 width="473.000000pt" height="173.000000pt" viewBox="0 0 473.000000 173.000000"
 preserveAspectRatio="xMidYMid meet">

<g transform="translate(0.000000,173.000000) scale(0.100000,-0.100000)"
fill="#000000" stroke="none">
<path d="M780 1533 c-94 -12 -177 -27 -199 -35 -173 -70 -295 -171 -378 -313
-212 -360 -68 -827 307 -998 114 -52 157 -60 300 -61 121 0 144 3 219 28 106
34 207 99 288 183 79 82 127 160 165 271 27 78 30 99 31 212 0 86 -5 143 -16
183 -65 232 -233 413 -462 496 -50 18 -212 39 -255 34z m161 -39 c76 -16 134
-38 144 -53 3 -5 -34 -89 -81 -186 -70 -143 -90 -175 -103 -169 -9 4 -42 9
-73 12 -76 6 -148 -20 -203 -74 -65 -63 -80 -103 -80 -211 l1 -91 -51 -23
c-89 -39 -259 -119 -277 -129 -30 -17 -35 -12 -57 59 -37 116 -38 260 -3 392
32 125 153 288 273 370 148 100 341 140 510 103z m242 -98 c51 -32 167 -146
167 -163 0 -4 -72 -59 -160 -121 l-160 -113 -40 31 c-22 18 -40 37 -40 43 0 6
34 80 75 164 41 85 75 157 75 162 0 7 21 31 27 31 2 0 27 -15 56 -34z m217
-231 c18 -29 20 -38 10 -50 -7 -8 -16 -15 -20 -15 -5 0 -41 -15 -82 -34 -237
-108 -264 -118 -256 -96 3 11 308 230 319 230 4 0 17 -16 29 -35z m48 -102
c32 -85 37 -115 36 -238 0 -116 -3 -139 -27 -208 -38 -106 -74 -168 -142 -245
-109 -121 -245 -191 -432 -223 -77 -13 -175 -3 -278 28 -86 26 -87 19 11 217
84 173 88 178 113 171 129 -34 245 10 313 119 31 48 32 57 33 150 l1 98 30 13
c35 15 190 87 259 120 64 31 70 30 83 -2z m-555 -10 c64 -23 128 -92 152 -162
58 -176 -125 -356 -303 -297 -123 41 -195 162 -170 283 32 148 177 228 321
176z m-323 -373 c0 -14 -312 -229 -325 -224 -6 3 -19 20 -28 39 -18 37 -16 41
43 67 89 41 199 91 245 112 48 23 65 24 65 6z m68 -60 c17 -16 32 -34 32 -39
0 -6 -37 -87 -82 -181 -58 -122 -86 -170 -99 -170 -36 0 -219 159 -219 191 0
10 309 229 324 229 6 0 26 -14 44 -30z"/>
<path d="M764 896 c-12 -8 -27 -29 -34 -45 -28 -68 63 -138 125 -97 69 45 49
142 -32 153 -25 3 -45 -1 -59 -11z"/>
<path d="M2218 1068 l-3 -303 -32 -3 c-29 -3 -33 -7 -33 -33 l0 -29 75 0 75 0
0 335 0 335 -40 0 -40 0 -2 -302z"/>
<path d="M4160 1345 l0 -25 -114 0 c-89 0 -116 3 -126 15 -7 8 -15 15 -19 15
-6 0 -42 -142 -41 -161 0 -3 8 -16 19 -28 l19 -21 9 27 c6 16 14 42 19 58 l9
30 110 0 110 0 0 -95 0 -95 -150 -5 -150 -5 0 -25 c0 -23 4 -25 58 -28 31 -2
57 -6 57 -11 0 -7 -63 -157 -96 -229 -9 -19 -14 -35 -12 -36 1 -1 16 -7 31
-14 28 -12 28 -11 53 43 13 31 24 57 24 60 0 2 16 38 35 79 19 42 35 80 35 86
0 13 40 22 81 18 l34 -3 3 -147 3 -148 34 0 35 0 0 134 c0 74 3 141 6 150 4
12 20 16 54 16 51 0 60 -6 80 -60 13 -35 28 -73 54 -132 7 -18 20 -50 27 -71
10 -27 17 -36 29 -31 8 3 23 9 33 11 20 6 18 19 -20 103 -14 30 -32 73 -41 95
-8 22 -19 45 -24 52 -17 22 2 33 58 33 53 0 54 0 54 30 l0 30 -143 0 c-98 0
-147 4 -155 12 -13 13 -16 126 -6 166 6 21 10 22 145 22 l139 0 0 30 0 29
-142 3 c-140 3 -143 4 -146 26 -3 18 -10 22 -38 22 -30 0 -34 -3 -34 -25z"/>
<path d="M1951 1128 c-18 -79 -37 -156 -41 -173 -5 -16 -11 -47 -15 -68 -5
-33 -3 -38 17 -46 15 -6 27 -5 34 2 7 7 28 80 48 162 20 83 41 164 46 181 15
46 12 60 -15 72 -14 7 -29 12 -33 12 -4 0 -22 -64 -41 -142z"/>
<path d="M2475 1257 c-11 -7 -21 -12 -22 -13 -3 0 21 -125 37 -194 4 -19 13
-62 20 -95 12 -64 29 -125 35 -125 2 0 16 5 30 10 26 10 27 13 20 58 -3 26
-10 63 -15 82 -12 46 -25 106 -47 208 -9 45 -22 82 -28 81 -5 0 -19 -6 -30
-12z"/>
<path d="M1931 473 c-1 -13 -7 -23 -16 -23 -8 0 -15 -4 -15 -10 0 -5 7 -10 15
-10 23 0 19 -50 -7 -77 l-21 -23 21 0 c18 0 22 -6 22 -30 0 -17 -7 -33 -17
-39 -21 -12 -13 -24 11 -15 11 4 16 18 16 48 0 23 5 47 12 54 9 9 9 15 0 24
-17 17 -15 48 3 55 14 5 14 8 2 22 -8 9 -17 23 -20 31 -4 10 -6 7 -6 -7z"/>
<path d="M2049 468 c-1 -13 -1 -38 0 -55 2 -29 0 -33 -23 -33 l-26 0 20 -35
c26 -47 25 -57 -7 -77 -17 -11 -22 -18 -13 -18 9 0 26 7 38 16 21 14 25 14 47
0 37 -24 54 -19 21 7 l-28 23 21 34 c26 43 26 50 1 50 -24 0 -37 26 -23 48 6
10 6 24 -1 39 -14 29 -26 29 -27 1z m45 -106 c3 -5 -4 -19 -15 -31 l-21 -22
-15 20 c-8 12 -11 26 -8 31 8 12 52 13 59 2z"/>
<path d="M2580 465 c-5 -28 -8 -30 -58 -33 -60 -4 -62 -22 -1 -22 38 0 39 -1
28 -22 -6 -13 -27 -40 -47 -60 -20 -21 -33 -40 -30 -43 3 -3 26 17 51 45 51
56 56 53 59 -33 1 -48 2 -47 7 18 5 56 8 67 18 55 48 -60 83 -94 89 -87 4 4
-8 24 -28 45 -20 20 -41 47 -47 60 -11 21 -10 22 34 22 25 0 45 5 45 10 0 6
-24 10 -54 10 -54 0 -55 0 -58 33 l-4 32 -4 -30z"/>
<path d="M2650 465 c7 -9 15 -13 17 -11 7 7 -7 26 -19 26 -6 0 -6 -6 2 -15z"/>
<path d="M3048 474 c-5 -4 -8 -51 -8 -105 l0 -97 28 -1 c15 0 35 -1 45 -1 28
-2 46 29 47 76 0 50 -13 64 -61 64 -36 0 -38 2 -41 36 -2 20 -6 32 -10 28z
m91 -105 c20 -58 -33 -118 -66 -73 -29 40 -13 104 27 104 22 0 30 -6 39 -31z"/>
<path d="M3504 375 c0 -60 1 -84 3 -52 2 32 2 81 0 110 -2 29 -3 3 -3 -58z"/>
<path d="M3861 396 c-14 -17 -17 -61 -7 -92 8 -25 48 -45 66 -34 9 6 4 9 -16
12 -28 3 -29 5 -29 58 0 55 0 55 32 58 28 3 33 -1 39 -23 3 -14 4 -42 1 -61
-5 -30 -4 -34 8 -24 19 15 19 79 1 103 -16 21 -79 23 -95 3z"/>
<path d="M4307 396 c-3 -8 -3 -39 0 -70 6 -56 6 -56 40 -56 21 0 36 -6 39 -15
9 -22 -15 -45 -46 -45 -22 0 -31 6 -38 28 l-10 27 -1 -26 c-1 -38 54 -53 100
-29 42 23 14 80 -40 80 -25 0 -38 19 -20 32 11 7 11 11 2 15 -7 2 -13 17 -13
33 0 16 6 31 13 33 7 4 6 6 -4 6 -9 1 -19 -5 -22 -13z"/>
<path d="M4363 399 c20 -12 22 -39 5 -58 -11 -11 -10 -13 2 -9 8 3 18 21 21
41 5 35 4 37 -20 37 -23 -1 -24 -2 -8 -11z"/>
</g>
</svg>
